<mxfile host="app.diagrams.net" modified="2020-11-25T09:02:36.274Z" agent="5.0 (Macintosh; Intel Mac OS X 10_14_6) AppleWebKit/537.36 (KHTML, like Gecko) Chrome/86.0.4240.198 Safari/537.36" etag="nzsFd7lc7d7vlgoCrBKp" version="13.9.9" type="github">
  <diagram id="LUMRh5OlZpuZEt3NDZdp" name="Page-1">
    <mxGraphModel dx="1373" dy="772" grid="1" gridSize="10" guides="1" tooltips="1" connect="1" arrows="1" fold="1" page="1" pageScale="1" pageWidth="827" pageHeight="1169" math="0" shadow="0">
      <root>
        <mxCell id="0" />
        <mxCell id="1" parent="0" />
        <mxCell id="xKzn0QDxyfaIzEWa7lP7-7" value="" style="rounded=1;whiteSpace=wrap;html=1;" parent="1" vertex="1">
          <mxGeometry x="50" y="360" width="350" height="260" as="geometry" />
        </mxCell>
        <mxCell id="xKzn0QDxyfaIzEWa7lP7-8" value="" style="rounded=1;whiteSpace=wrap;html=1;" parent="1" vertex="1">
          <mxGeometry x="720" y="350" width="348" height="260" as="geometry" />
        </mxCell>
        <mxCell id="xKzn0QDxyfaIzEWa7lP7-16" value="bos" style="rounded=0;whiteSpace=wrap;html=1;fillColor=#00CC66;" parent="1" vertex="1">
          <mxGeometry x="90" y="391.5" width="270" height="30" as="geometry" />
        </mxCell>
        <mxCell id="f2b8wQUxbWhwlR0vjk2G-1" value="1,2,3,4,5" style="rounded=0;whiteSpace=wrap;html=1;strokeColor=none;fillColor=#FFFFFF;" parent="1" vertex="1">
          <mxGeometry x="470" y="400" width="120" height="20" as="geometry" />
        </mxCell>
        <mxCell id="f2b8wQUxbWhwlR0vjk2G-2" value="" style="rounded=0;whiteSpace=wrap;html=1;fillColor=#FFFFFF;strokeColor=none;" parent="1" vertex="1">
          <mxGeometry x="480" y="530" width="120" height="20" as="geometry" />
        </mxCell>
        <mxCell id="f2b8wQUxbWhwlR0vjk2G-56" value="" style="html=1;shadow=0;dashed=0;align=center;verticalAlign=middle;shape=mxgraph.arrows2.arrow;dy=0.6;dx=40;flipH=1;notch=0;strokeColor=#000099;fillColor=#3399FF;" parent="1" vertex="1">
          <mxGeometry x="760" y="1000" width="160" height="40" as="geometry" />
        </mxCell>
        <mxCell id="f2b8wQUxbWhwlR0vjk2G-67" value="" style="html=1;shadow=0;dashed=0;align=center;verticalAlign=middle;shape=mxgraph.arrows2.arrow;dy=0.6;dx=40;notch=0;strokeColor=none;fillColor=#3399FF;" parent="1" vertex="1">
          <mxGeometry x="761.54" y="1150" width="160" height="41" as="geometry" />
        </mxCell>
        <mxCell id="f2b8wQUxbWhwlR0vjk2G-69" value="索引配置信息" style="rounded=0;whiteSpace=wrap;html=1;fillColor=#FFFFFF;strokeColor=none;" parent="1" vertex="1">
          <mxGeometry x="770" y="1130" width="120" height="20" as="geometry" />
        </mxCell>
        <mxCell id="CAqo2h0ms8LlTHT3pmIE-1" value="" style="rounded=1;whiteSpace=wrap;html=1;" parent="1" vertex="1">
          <mxGeometry x="50" y="940" width="350" height="260" as="geometry" />
        </mxCell>
        <mxCell id="CAqo2h0ms8LlTHT3pmIE-14" value="" style="rounded=1;whiteSpace=wrap;html=1;" parent="1" vertex="1">
          <mxGeometry x="728" y="946.5" width="350" height="260" as="geometry" />
        </mxCell>
        <mxCell id="CAqo2h0ms8LlTHT3pmIE-27" value="" style="html=1;shadow=0;dashed=0;align=center;verticalAlign=middle;shape=mxgraph.arrows2.arrow;dy=0.6;dx=40;notch=0;strokeColor=none;fillColor=#3399FF;" parent="1" vertex="1">
          <mxGeometry x="400" y="421.5" width="290" height="41" as="geometry" />
        </mxCell>
        <mxCell id="CAqo2h0ms8LlTHT3pmIE-28" value="" style="shape=singleArrow;direction=west;whiteSpace=wrap;html=1;strokeColor=none;fillColor=#3399FF;arrowWidth=0.3987286885579427;arrowSize=0.1425927225748698;" parent="1" vertex="1">
          <mxGeometry x="400" y="482" width="300" height="48" as="geometry" />
        </mxCell>
        <mxCell id="CAqo2h0ms8LlTHT3pmIE-31" value="boc" style="rounded=0;whiteSpace=wrap;html=1;fillColor=#00CC66;" parent="1" vertex="1">
          <mxGeometry x="770" y="395" width="270" height="30" as="geometry" />
        </mxCell>
        <mxCell id="CAqo2h0ms8LlTHT3pmIE-32" value="" style="html=1;shadow=0;dashed=0;align=center;verticalAlign=middle;shape=mxgraph.arrows2.arrow;dy=0.6;dx=40;notch=0;strokeColor=none;fillColor=#3399FF;rotation=90;" parent="1" vertex="1">
          <mxGeometry x="700" y="740" width="290" height="41" as="geometry" />
        </mxCell>
        <mxCell id="CAqo2h0ms8LlTHT3pmIE-33" value="" style="html=1;shadow=0;dashed=0;align=center;verticalAlign=middle;shape=mxgraph.arrows2.arrow;dy=0.6;dx=40;notch=0;strokeColor=none;fillColor=#3399FF;rotation=-90;" parent="1" vertex="1">
          <mxGeometry x="778" y="750" width="290" height="41" as="geometry" />
        </mxCell>
        <mxCell id="CAqo2h0ms8LlTHT3pmIE-34" value="" style="html=1;shadow=0;dashed=0;align=center;verticalAlign=middle;shape=mxgraph.arrows2.arrow;dy=0.6;dx=40;notch=0;strokeColor=none;fillColor=#3399FF;" parent="1" vertex="1">
          <mxGeometry x="414" y="1015.75" width="290" height="41" as="geometry" />
        </mxCell>
        <mxCell id="CAqo2h0ms8LlTHT3pmIE-35" value="" style="shape=singleArrow;direction=west;whiteSpace=wrap;html=1;strokeColor=none;fillColor=#3399FF;arrowWidth=0.3987286885579427;arrowSize=0.1425927225748698;" parent="1" vertex="1">
          <mxGeometry x="414" y="1076.25" width="300" height="48" as="geometry" />
        </mxCell>
        <mxCell id="CAqo2h0ms8LlTHT3pmIE-36" value="k8s" style="rounded=0;whiteSpace=wrap;html=1;fillColor=#00CC66;" parent="1" vertex="1">
          <mxGeometry x="760" y="1055" width="270" height="30" as="geometry" />
        </mxCell>
        <mxCell id="CAqo2h0ms8LlTHT3pmIE-37" value="dts" style="rounded=0;whiteSpace=wrap;html=1;fillColor=#00CC66;" parent="1" vertex="1">
          <mxGeometry x="100" y="1046.25" width="270" height="30" as="geometry" />
        </mxCell>
        <mxCell id="CAqo2h0ms8LlTHT3pmIE-40" value="1.创建dts服务" style="rounded=0;whiteSpace=wrap;html=1;strokeColor=none;fillColor=#FFFFFF;" parent="1" vertex="1">
          <mxGeometry x="130" y="432.5" width="190" height="30" as="geometry" />
        </mxCell>
        <mxCell id="CAqo2h0ms8LlTHT3pmIE-41" value="2.启动dts" style="rounded=0;whiteSpace=wrap;html=1;strokeColor=none;fillColor=#FFFFFF;" parent="1" vertex="1">
          <mxGeometry x="120" y="465" width="190" height="30" as="geometry" />
        </mxCell>
        <mxCell id="Pzn9V1K6N3wmKN9Gp2ga-1" value="3.销毁dts服务" style="rounded=0;whiteSpace=wrap;html=1;strokeColor=none;fillColor=#FFFFFF;" vertex="1" parent="1">
          <mxGeometry x="130" y="500" width="190" height="30" as="geometry" />
        </mxCell>
        <mxCell id="Pzn9V1K6N3wmKN9Gp2ga-2" value="4.销毁dts示实例" style="rounded=0;whiteSpace=wrap;html=1;strokeColor=none;fillColor=#FFFFFF;" vertex="1" parent="1">
          <mxGeometry x="130" y="540" width="190" height="30" as="geometry" />
        </mxCell>
        <mxCell id="Pzn9V1K6N3wmKN9Gp2ga-5" value="5.探活" style="rounded=0;whiteSpace=wrap;html=1;strokeColor=none;fillColor=#FFFFFF;" vertex="1" parent="1">
          <mxGeometry x="110" y="570" width="190" height="30" as="geometry" />
        </mxCell>
        <mxCell id="Pzn9V1K6N3wmKN9Gp2ga-6" value="" style="html=1;shadow=0;dashed=0;align=center;verticalAlign=middle;shape=mxgraph.arrows2.arrow;dy=0.6;dx=40;notch=0;strokeColor=none;fillColor=#3399FF;rotation=-90;" vertex="1" parent="1">
          <mxGeometry x="50" y="750" width="290" height="41" as="geometry" />
        </mxCell>
        <mxCell id="Pzn9V1K6N3wmKN9Gp2ga-7" value="" style="html=1;shadow=0;dashed=0;align=center;verticalAlign=middle;shape=mxgraph.arrows2.arrow;dy=0.6;dx=40;notch=0;strokeColor=none;fillColor=#3399FF;rotation=90;" vertex="1" parent="1">
          <mxGeometry x="160" y="750" width="290" height="41" as="geometry" />
        </mxCell>
        <mxCell id="Pzn9V1K6N3wmKN9Gp2ga-8" value="通过配置id从bos获取yaml" style="rounded=0;whiteSpace=wrap;html=1;fillColor=#FFFFFF;strokeColor=none;" vertex="1" parent="1">
          <mxGeometry x="110" y="700" width="50" height="120" as="geometry" />
        </mxCell>
        <mxCell id="Pzn9V1K6N3wmKN9Gp2ga-9" value="响应" style="rounded=0;whiteSpace=wrap;html=1;fillColor=#FFFFFF;strokeColor=none;" vertex="1" parent="1">
          <mxGeometry x="340" y="690" width="50" height="120" as="geometry" />
        </mxCell>
        <mxCell id="Pzn9V1K6N3wmKN9Gp2ga-10" value="两种情况:&lt;br&gt;1.第一次创建dts]服务&lt;br&gt;2.dts镜像或者yaml配置升级" style="rounded=0;whiteSpace=wrap;html=1;fillColor=#FFFFFF;strokeColor=none;" vertex="1" parent="1">
          <mxGeometry x="1160" y="400" width="210" height="120" as="geometry" />
        </mxCell>
      </root>
    </mxGraphModel>
  </diagram>
</mxfile>
